Coordinates
version=1
nRows=5
nColumns=42
inDegrees=yes

Units are S.I. units (second, meters, Newtons, ...)
If the header above contains a line with 'inDegrees', this indicates whether rotational values are in degrees (yes) or radians (no).

endheader
time	pelvis_tilt	pelvis_list	pelvis_rotation	pelvis_tx	pelvis_ty	pelvis_tz	hip_flexion_r	hip_adduction_r	hip_rotation_r	knee_angle_r	knee_adduction_r	knee_angle_r_beta	ankle_angle_r	subtalar_angle_r	mtp_angle_r	hip_flexion_l	hip_adduction_l	hip_rotation_l	knee_angle_l	knee_adduction_l	knee_angle_l_beta	ankle_angle_l	subtalar_angle_l	mtp_angle_l	lumbar_extension	lumbar_bending	lumbar_rotation	arm_flex_r	arm_add_r	arm_rot_r	elbow_flex_r	pro_sup_r	wrist_flex_r	wrist_dev_r	arm_flex_l	arm_add_l	arm_rot_l	elbow_flex_l	pro_sup_l	wrist_flex_l	wrist_dev_l
      1.07000000	      1.10583010	      1.53603522	     -1.02195215	     -1.78341657	      0.84781863	      0.28371740	      3.76513603	     -3.44451603	    -27.74306777	     33.70608368	     -6.97046047	      0.58828214	     32.31005936	     34.23169188	     -9.42921368	     30.10468087	      0.22668254	    -22.25425066	     32.44733112	     -8.94249651	      0.56631276	      7.10867765	     23.55829006	     -9.42921368	    -29.36047494	      1.01927591	     -0.80370781	     18.06940119	    -13.49197891	      3.86499900	     45.85272289	     90.00000001	      0.00000000	      0.00000000	     14.88980620	    -13.14515946	     25.64664413	     52.29440106	     90.00000001	      0.00000000	      0.00000000
      1.08000000	      1.05111101	      1.60719132	     -1.20926108	     -1.77973116	      0.84744800	      0.28277000	      3.57784842	     -3.53580748	    -27.60165850	     33.64849198	     -7.10969224	      0.58727697	     32.35796967	     34.21613401	     -9.42406235	     30.07007692	      0.41272339	    -22.07648398	     32.78087936	     -9.07526573	      0.57213428	      7.12203307	     23.51750945	     -9.42406235	    -29.26932166	      0.70048553	     -0.88306935	     18.03828919	    -13.41935316	      3.89592932	     45.90333039	     90.00000001	      0.00000000	      0.00000000	     14.77507791	    -13.27268227	     25.61226740	     52.22236560	     90.00000001	      0.00000000	      0.00000000
      1.09000000	      1.00964805	      1.72715448	     -1.34049939	     -1.77605728	      0.84715122	      0.28177577	      3.35638359	     -3.67794600	    -27.45267715	     33.56280458	     -7.22347602	      0.58578145	     32.43702097	     34.19175104	     -9.41920052	     30.09807660	      0.66264319	    -21.85180612	     33.23689093	     -9.20712211	      0.58009318	      7.17761156	     23.40086272	     -9.41920052	    -29.22489884	      0.33788718	     -1.02316788	     17.99490125	    -13.31340122	      3.93720628	     45.98440159	     90.00000001	      0.00000000	      0.00000000	     14.70115455	    -13.43587944	     25.54803108	     52.15025702	     90.00000001	      0.00000000	      0.00000000
      1.10000000	      0.97729169	      1.89024841	     -1.37070539	     -1.77234350	      0.84683379	      0.28065134	      3.06892925	     -3.88895086	    -27.32967485	     33.45304128	     -7.23342492	      0.58386572	     32.60018743	     34.13816237	     -9.41178775	     30.18618709	      0.96035352	    -21.53022253	     33.84443503	     -9.26247961	      0.59069682	      7.35058543	     23.06224760	     -9.41178775	    -29.19265928	     -0.03534282	     -1.33851158	     17.92104797	    -13.17380957	      3.99965024	     46.14705326	     90.00000001	      0.00000000	      0.00000000	     14.70289802	    -13.63934262	     25.42032715	     52.09950385	     90.00000001	      0.00000000	      0.00000000
      1.11000000	      0.84568572	      1.98887164	     -1.27950643	     -1.76885528	      0.84645357	      0.27939624	      2.90222856	     -4.02745529	    -27.31361920	     33.37733188	     -7.24808677	      0.58254434	     33.37917206	     33.85161637	     -9.34240997	     30.27920693	      1.40860409	    -19.49260434	     34.48746602	     -8.52720003	      0.60191983	      8.15012720	     19.25856540	     -9.34240997	    -29.12989303	     -0.29084690	     -1.73090581	     17.61072963	    -13.20470621	      4.38018936	     47.34908578	     90.00000001	      0.00000000	      0.00000000	     14.52450512	    -13.72753083	     24.49553577	     52.45717168	     90.00000001	      0.00000000	      0.00000000
